<?xml version="1.0" standalone="no"?>
<!DOCTYPE svg PUBLIC "-//W3C//DTD SVG 20010904//EN"
 "http://www.w3.org/TR/2001/REC-SVG-20010904/DTD/svg10.dtd">
<svg version="1.0" xmlns="http://www.w3.org/2000/svg"
 width="203.000000pt" height="212.000000pt" viewBox="0 0 203.000000 212.000000"
 preserveAspectRatio="xMidYMid meet">

<g transform="translate(0.000000,212.000000) scale(0.100000,-0.100000)"
fill="#000000" stroke="none">
<path d="M1572 1844 c-6 -3 -9 -11 -6 -16 4 -6 3 -8 -3 -5 -17 10 -343 -328
-479 -496 -70 -87 -131 -156 -135 -155 -4 2 -54 48 -111 104 -57 55 -170 156
-253 224 -82 68 -172 142 -200 165 -73 60 -97 75 -122 75 -76 0 -127 -82 -90
-146 7 -12 70 -70 142 -129 245 -202 340 -284 424 -369 77 -77 83 -86 70 -103
-39 -50 -268 -324 -301 -361 -22 -24 -36 -48 -32 -54 4 -6 3 -8 -3 -5 -9 6
-125 -121 -182 -199 -57 -78 2 -177 95 -159 26 4 62 41 201 203 93 108 213
251 267 317 55 66 105 126 111 134 21 22 229 -130 480 -349 196 -172 221 -190
264 -190 69 0 110 61 87 128 -14 40 -354 336 -543 473 -71 50 -132 95 -137
100 -15 14 230 307 409 489 95 96 176 186 180 198 10 34 -2 86 -24 106 -20 18
-86 30 -109 20z m46 -153 l-1 -39 -25 16 c-24 16 -24 15 -17 -7 6 -21 5 -21
-14 -9 -20 12 -20 14 -4 26 9 6 25 12 36 12 12 0 17 5 14 14 -5 12 0 26 10 26
1 0 2 -18 1 -39z m-78 -73 c0 -19 -2 -20 -10 -8 -13 19 -13 30 0 30 6 0 10
-10 10 -22z m-55 -18 c-4 -6 4 -19 17 -30 13 -11 18 -19 12 -20 -18 0 -56 38
-49 49 3 6 11 11 16 11 6 0 7 -5 4 -10z m-31 -56 c4 -9 4 -19 1 -22 -7 -8 -35
19 -29 29 8 14 21 11 28 -7z m-54 -44 c0 -5 -4 -10 -10 -10 -5 0 -10 5 -10 10
0 6 5 10 10 10 6 0 10 -4 10 -10z m-1040 -28 c0 -13 -12 -22 -22 -16 -10 6 -1
24 13 24 5 0 9 -4 9 -8z m1026 -16 c9 -20 9 -26 -3 -30 -8 -4 -17 3 -22 17
-16 40 7 52 25 13z m-61 -16 c-3 -5 2 -21 11 -35 20 -31 12 -33 -15 -3 -16 16
-18 25 -10 35 13 15 23 18 14 3z m-30 -70 c9 -16 13 -30 9 -30 -10 0 -42 45
-37 52 7 13 12 9 28 -22z m-411 -428 c-6 -4 -13 -13 -15 -20 -3 -10 -10 -9
-27 6 -27 24 -28 32 -2 32 11 0 20 5 20 12 0 8 7 6 18 -5 11 -12 13 -20 6 -25z
m-54 -42 c0 -5 -2 -10 -4 -10 -3 0 -8 5 -11 10 -3 6 -1 10 4 10 6 0 11 -4 11
-10z m-26 -9 c3 -5 0 -14 -8 -20 -11 -9 -15 -7 -19 9 -5 20 16 29 27 11z m-51
-16 c-3 -9 -8 -14 -10 -11 -3 3 -2 9 2 15 9 16 15 13 8 -4z m12 -44 c-3 -6
-11 -11 -17 -11 -6 0 -6 6 2 15 14 17 26 13 15 -4z m-43 -64 c-2 -5 -12 -1
-23 9 -10 9 -16 20 -13 25 6 10 42 -23 36 -34z m-66 8 c-3 -8 -1 -15 4 -15 6
0 10 -7 10 -15 0 -21 -17 -19 -29 3 -7 13 -6 23 1 30 16 16 21 15 14 -3z m-26
-61 c0 -8 5 -14 10 -14 6 0 10 -5 10 -11 0 -6 -8 -9 -17 -7 -13 2 -17 11 -15
28 l4 25 -27 -25 c-24 -22 -25 -26 -9 -37 11 -8 14 -18 9 -30 -8 -17 -8 -17
-12 0 -3 9 -9 17 -14 17 -17 0 -9 24 18 52 26 28 43 29 43 2z m-95 -84 c3 -5
-1 -10 -10 -10 -9 0 -13 5 -10 10 3 6 8 10 10 10 2 0 7 -4 10 -10z"/>
</g>
</svg>
