<?xml version="1.0" standalone="no"?>
<!DOCTYPE svg PUBLIC "-//W3C//DTD SVG 20010904//EN"
 "http://www.w3.org/TR/2001/REC-SVG-20010904/DTD/svg10.dtd">
<svg version="1.0" xmlns="http://www.w3.org/2000/svg"
 width="804.000000pt" height="800.000000pt" viewBox="0 0 804.000000 800.000000"
 preserveAspectRatio="xMidYMid meet">

<g transform="translate(0.000000,800.000000) scale(0.100000,-0.100000)"
fill="#000000" stroke="none">
<path d="M2781 7446 c-8 -9 -13 -249 -16 -852 -3 -462 -8 -934 -11 -1050 l-6
-211 -597 -9 c-328 -5 -636 -8 -686 -7 -278 6 -1024 6 -1047 0 -40 -11 -54
-42 -32 -74 l16 -26 202 9 c110 5 264 8 341 6 77 -1 514 -2 971 -1 l832 0 7
-223 c5 -148 3 -290 -5 -419 -7 -106 -14 -421 -16 -699 -3 -570 -15 -1024 -27
-1036 -4 -5 -533 -9 -1175 -10 l-1167 -2 -9 -26 c-19 -52 1 -58 221 -67 295
-12 1393 -11 1668 2 132 6 290 8 351 4 l111 -7 9 -196 c5 -109 9 -606 9 -1106
0 -997 -4 -938 58 -922 23 5 26 12 32 68 10 99 11 1720 1 1952 l-9 209 544 -9
c299 -5 639 -6 754 -4 277 7 555 5 857 -5 l248 -8 2 -1101 3 -1101 36 -3 c27
-2 39 2 45 15 5 10 9 506 11 1101 1 596 5 1087 8 1090 4 4 533 7 1177 7 1146
0 1170 0 1184 19 17 24 18 37 1 60 -12 16 -54 17 -727 14 -868 -3 -882 -3
-1297 6 l-332 7 -7 712 c-4 471 -2 822 5 1037 14 373 28 631 37 639 7 7 200 7
1395 1 981 -5 959 -6 959 39 0 10 -6 25 -13 35 -12 17 -69 18 -952 24 -517 4
-1042 7 -1166 7 l-227 0 -7 235 c-5 151 -3 349 5 555 17 409 10 1296 -10 1319
-15 19 -54 21 -68 4 -11 -14 -27 -1252 -23 -1804 l2 -322 -100 -7 c-56 -4
-142 -4 -193 1 -51 4 -446 8 -878 9 -432 0 -885 4 -1007 9 l-222 9 4 386 c13
1087 14 1708 3 1719 -16 16 -63 15 -77 -2z m1516 -2221 c518 0 945 -3 948 -7
3 -3 1 -84 -4 -179 -31 -526 -40 -1207 -21 -1621 11 -223 2 -569 -14 -585 -11
-11 -322 -7 -445 6 -126 13 -295 14 -501 1 -150 -9 -1434 0 -1443 10 -2 3 0
138 6 300 5 162 11 520 12 795 1 275 7 577 13 670 7 101 9 263 5 399 l-6 229
254 -8 c140 -5 678 -9 1196 -10z"/>
</g>
</svg>
