<?xml version="1.0" standalone="no"?>
<!DOCTYPE svg PUBLIC "-//W3C//DTD SVG 20010904//EN"
 "http://www.w3.org/TR/2001/REC-SVG-20010904/DTD/svg10.dtd">
<svg version="1.0" xmlns="http://www.w3.org/2000/svg"
 width="215.000000pt" height="200.000000pt" viewBox="0 0 215.000000 200.000000"
 preserveAspectRatio="xMidYMid meet">

<g transform="translate(0.000000,200.000000) scale(0.100000,-0.100000)"
fill="#000000" stroke="none">
<path d="M989 1790 c-202 -25 -379 -112 -528 -259 -265 -261 -336 -630 -181
-945 79 -162 190 -276 335 -345 243 -117 288 -126 455 -96 52 9 129 23 171 30
81 14 120 31 244 107 179 111 276 211 351 363 35 70 51 121 74 233 35 169 37
222 10 328 -59 230 -219 427 -423 519 -110 50 -367 83 -508 65z m307 -215
c185 -35 325 -154 405 -345 43 -101 46 -162 15 -305 -35 -165 -77 -248 -175
-346 -84 -84 -258 -195 -320 -204 -20 -3 -82 -15 -138 -25 -138 -27 -169 -25
-249 11 -38 17 -96 43 -129 57 -38 18 -83 50 -126 92 -290 285 -220 740 151
979 157 102 340 129 566 86z"/>
</g>
</svg>
